<!DOCTYPE svg PUBLIC "-//W3C//DTD SVG 1.1//EN" "http://www.w3.org/Graphics/SVG/1.1/DTD/svg11.dtd">
<!-- Uploaded to: SVG Repo, www.svgrepo.com, Transformed by: SVG Repo Mixer Tools -->
<svg width="800px" height="800px" viewBox="0 0 24 24" id="_003_ECOMMERCE_03" data-name="003_ECOMMERCE_03" xmlns="http://www.w3.org/2000/svg" fill="#000000">
<g id="SVGRepo_bgCarrier" stroke-width="0"/>
<g id="SVGRepo_tracerCarrier" stroke-linecap="round" stroke-linejoin="round"/>
<g id="SVGRepo_iconCarrier">
<title>003_099</title>
<path d="M12,22a.99942.99942,0,0,1-1-1V3a1,1,0,0,1,2,0V21A.99942.99942,0,0,1,12,22Z" style="fill:#393E46"/>
<path d="M12,13c-3.75684,0-6-1.68262-6-4.5S8.24316,4,12,4a6.42241,6.42241,0,0,1,5.34375,2.43457,1.00029,1.00029,0,0,1-1.6543,1.125A4.49724,4.49724,0,0,0,12,6c-1.8252,0-4,.43359-4,2.5S10.1748,11,12,11a1,1,0,0,1,0,2Z" style="fill:#393E46"/>
<path d="M12,20a6.42207,6.42207,0,0,1-5.34766-2.44043.99974.99974,0,0,1,1.6543-1.123A4.49754,4.49754,0,0,0,12,18c1.8252,0,4-.43359,4-2.5S13.8252,13,12,13a1,1,0,0,1,0-2c3.75684,0,6,1.68262,6,4.5S15.75684,20,12,20Z" style="fill:#393E46"/>
</g>
</svg>