<!DOCTYPE svg PUBLIC "-//W3C//DTD SVG 1.1//EN" "http://www.w3.org/Graphics/SVG/1.1/DTD/svg11.dtd">
<!-- Uploaded to: SVG Repo, www.svgrepo.com, Transformed by: SVG Repo Mixer Tools -->
<svg width="800px" height="800px" viewBox="0 0 24 24" xmlns="http://www.w3.org/2000/svg" fill="#393E46">
<g id="SVGRepo_bgCarrier" stroke-width="0"/>
<g id="SVGRepo_tracerCarrier" stroke-linecap="round" stroke-linejoin="round"/>
<g id="SVGRepo_iconCarrier"> <g> <path d="M0 0h24v24H0z" fill="none"/> <path d="M20 6h3v2h-1v11h1v2H1v-2h1V8H1V6h3V4a1 1 0 0 1 1-1h14a1 1 0 0 1 1 1v2zm0 2H4v11h3v-7h2v7h2v-7h2v7h2v-7h2v7h3V8zM6 5v1h12V5H6z"/> </g> </g>
</svg>