<svg width="18" height="15" viewBox="0 0 18 15" fill="none" xmlns="http://www.w3.org/2000/svg">
<path d="M2.03585 10.1778C1.34528 9.28059 1 8.83201 1 7.5C1 6.16799 1.34528 5.71943 2.03585 4.82227C3.41472 3.03089 5.72721 1 9.125 1C12.5228 1 14.8352 3.03089 16.2141 4.82227C16.9047 5.71943 17.25 6.16799 17.25 7.5C17.25 8.83201 16.9047 9.28059 16.2141 10.1778C14.8352 11.9691 12.5228 14 9.125 14C5.72721 14 3.41472 11.9691 2.03585 10.1778Z" stroke="black" stroke-opacity="0.5" stroke-width="1.5"/>
<path d="M11.5625 7.5C11.5625 8.84623 10.4712 9.9375 9.125 9.9375C7.77877 9.9375 6.6875 8.84623 6.6875 7.5C6.6875 6.15377 7.77877 5.0625 9.125 5.0625C10.4712 5.0625 11.5625 6.15377 11.5625 7.5Z" stroke="black" stroke-opacity="0.5" stroke-width="1.5"/>
</svg>
