<svg width="26" height="25" viewBox="0 0 26 25" fill="none" xmlns="http://www.w3.org/2000/svg">
<path d="M12.5502 0C5.64759 0 0 5.63504 0 12.5753C0 18.8504 4.59337 24.0587 10.5924 25V16.2149H7.40461V12.5753H10.5924V9.8017C10.5924 6.6516 12.4623 4.91967 15.3363 4.91967C16.7043 4.91967 18.135 5.15813 18.135 5.15813V8.25802H16.5537C14.9975 8.25802 14.508 9.22439 14.508 10.2159V12.5753H17.997L17.4322 16.2149H14.508V25C17.4653 24.5329 20.1584 23.024 22.1008 20.7455C24.0431 18.4671 25.1072 15.5693 25.1004 12.5753C25.1004 5.63504 19.4528 0 12.5502 0Z" fill="#393E46"/>
</svg>
