<svg width="25" height="25" viewBox="0 0 25 25" fill="none" xmlns="http://www.w3.org/2000/svg">
<g clip-path="url(#clip0_60_526)">
<path fill-rule="evenodd" clip-rule="evenodd" d="M24.7769 10.0049H12.7641C12.7641 11.2542 12.7641 13.7526 12.7565 15.0018H19.7176C19.4508 16.2511 18.505 18.0005 17.1687 18.8812C17.1687 18.8812 17.1662 18.8886 17.1636 18.8873C15.387 20.0604 13.0424 20.3266 11.3015 19.9768C8.57266 19.4346 6.4131 17.4556 5.53626 14.942C5.54137 14.9383 5.54521 14.9036 5.54904 14.9011C5.00022 13.342 5.00022 11.2542 5.54904 10.0049H5.54776C6.25485 7.70869 8.47947 5.61372 11.2121 5.04029C13.4099 4.57431 15.8899 5.07875 17.7137 6.78529C17.9562 6.54793 21.0704 3.50726 21.304 3.2599C15.073 -2.38318 5.09594 -0.398101 1.36268 6.88905H1.3614C1.3614 6.88905 1.36269 6.88935 1.35503 6.90309C-0.491817 10.4823 -0.41524 14.6998 1.36779 18.1079C1.36269 18.1117 1.35886 18.1139 1.35503 18.1177C2.97086 21.2534 5.91152 23.6583 9.4546 24.574C13.2185 25.5609 18.0085 24.8864 21.2172 21.9843L21.2211 21.9879C23.9397 19.5393 25.632 15.3681 24.7769 10.0049Z" fill="#393E46"/>
</g>
<defs>
<clipPath id="clip0_60_526">
<rect width="25" height="25" fill="white"/>
</clipPath>
</defs>
</svg>
