<svg width="30" height="32" viewBox="0 0 30 32" fill="none" xmlns="http://www.w3.org/2000/svg">
<path d="M30 16.0005C30 17.6691 28.656 19.0234 27 19.0234L3 19.0234C1.344 19.0234 0 17.6691 0 16.0005C0 14.3318 1.344 12.9775 3 12.9775L27 12.9775C28.656 12.9775 30 14.3318 30 16.0005Z" fill="#393E46"/>
<path d="M30 3.90866C30 5.57735 28.656 6.93164 27 6.93164L3 6.93164C1.344 6.93164 0 5.57735 0 3.90866C0 2.23997 1.344 0.88568 3 0.88568L27 0.88568C28.656 0.88568 30 2.23997 30 3.90866Z" fill="#393E46"/>
<path d="M30 28.0923C30 29.7609 28.656 31.1152 27 31.1152L3 31.1152C1.344 31.1152 0 29.7609 0 28.0923C0 26.4236 1.344 25.0693 3 25.0693H27C28.656 25.0693 30 26.4236 30 28.0923Z" fill="#393E46"/>
</svg>
