<svg width="100" height="100" viewBox="0 0 100 100" fill="none" xmlns="http://www.w3.org/2000/svg">
<path d="M50 0C77.6142 0 100 22.3858 100 50C100 77.6142 77.6142 100 50 100C22.3858 100 0 77.6142 0 50C0 22.3858 22.3858 0 50 0ZM50 10C27.9086 10 10 27.9086 10 50C10 72.0914 27.9086 90 50 90C72.0914 90 90 72.0914 90 50C90 27.9086 72.0914 10 50 10Z" fill="white"/>
<path d="M50.6152 0.00390625C56.9718 0.0821223 63.2572 1.37156 69.1338 3.80566C75.2001 6.3184 80.7125 10.0016 85.3555 14.6445C89.9984 19.2875 93.6816 24.7999 96.1943 30.8662C98.7069 36.9324 100 43.4341 100 50C100 52.7614 97.7614 55 95 55C92.2386 55 90 52.7614 90 50C90 44.7471 88.9653 39.5454 86.9551 34.6924C84.9449 29.8395 81.9985 25.4301 78.2842 21.7158C74.5699 18.0015 70.1605 15.0551 65.3076 13.0449C60.7579 11.1604 55.9018 10.1328 50.9844 10.0117L50 10C47.2386 10 45 7.76142 45 5C45 2.23858 47.2386 0 50 0L50.6152 0.00390625Z" fill="#005DF4"/>
</svg>
