<svg width="16" height="17" viewBox="0 0 16 17" fill="none" xmlns="http://www.w3.org/2000/svg">
<path fill-rule="evenodd" clip-rule="evenodd" d="M3.14706 0.5C1.68513 0.5 0.5 1.69391 0.5 3.16667V13.8333C0.5 15.3061 1.68513 16.5 3.14706 16.5H12.853C13.3403 16.5 13.7353 16.102 13.7353 15.6111C13.7353 15.1202 13.3403 14.7222 12.853 14.7222H3.14706C2.65976 14.7222 2.26471 14.3243 2.26471 13.8333V3.16667C2.26471 2.67575 2.65976 2.27778 3.14706 2.27778H12.853C13.3403 2.27778 13.7353 1.8798 13.7353 1.38889C13.7353 0.897973 13.3403 0.5 12.853 0.5H3.14706ZM11.7122 4.3159C11.3676 3.96877 10.8089 3.96877 10.4643 4.3159C10.1198 4.66304 10.1198 5.22585 10.4643 5.57299L12.4875 7.61111H4.91177C4.42446 7.61111 4.02942 8.00907 4.02942 8.5C4.02942 8.99093 4.42446 9.38889 4.91177 9.38889H12.4875L10.4643 11.427C10.1198 11.7741 10.1198 12.337 10.4643 12.6841C10.8089 13.0312 11.3676 13.0312 11.7122 12.6841L15.2416 9.12853C15.5861 8.78142 15.5861 8.21858 15.2416 7.87147L11.7122 4.3159Z" fill="white"/>
</svg>
