<svg width="200" height="89" viewBox="0 0 200 89" fill="none" xmlns="http://www.w3.org/2000/svg">
<path d="M90.0408 39.1326C88.0138 39.1326 86.2871 38.6916 84.8606 37.8094C83.4342 36.9273 82.3456 35.7261 81.5949 34.2058C80.8441 32.6668 80.4688 30.9213 80.4688 28.9694C80.4688 27.0174 80.8347 25.2719 81.5667 23.7329C82.2987 22.1938 83.3779 20.9832 84.8043 20.1011C86.2308 19.2002 87.9763 18.7498 90.0408 18.7498C92.4057 18.7498 94.3389 19.341 95.8404 20.5234C97.3606 21.6871 98.3085 23.3293 98.6838 25.4502H94.7142C94.4703 24.3804 93.9447 23.5452 93.1377 22.9446C92.3494 22.3252 91.2983 22.0155 89.9845 22.0155C88.7833 22.0155 87.7416 22.2971 86.8595 22.8601C85.9962 23.4232 85.3299 24.2209 84.8606 25.2531C84.3914 26.2854 84.1568 27.5242 84.1568 28.9694C84.1568 30.3958 84.3914 31.6345 84.8606 32.6856C85.3299 33.7178 85.9962 34.5155 86.8595 35.0786C87.7416 35.6229 88.7833 35.895 89.9845 35.895C91.2983 35.895 92.3494 35.6135 93.1377 35.0504C93.9447 34.4686 94.4703 33.6709 94.7142 32.6574H98.6838C98.3085 34.6844 97.3606 36.2704 95.8404 37.4153C94.3389 38.5602 92.4057 39.1326 90.0408 39.1326Z" fill="#222831"/>
<path d="M107.932 39.1326C106.524 39.1326 105.267 38.8323 104.159 38.2317C103.071 37.6124 102.217 36.749 101.597 35.6416C100.978 34.5343 100.668 33.258 100.668 31.8128C100.668 30.2925 100.997 28.9881 101.654 27.8995C102.329 26.7922 103.221 25.9476 104.328 25.3657C105.454 24.7839 106.693 24.493 108.045 24.493C109.452 24.493 110.71 24.8027 111.817 25.4221C112.924 26.0227 113.797 26.8672 114.435 27.9558C115.092 29.0444 115.421 30.3301 115.421 31.8128C115.421 33.2205 115.102 34.478 114.463 35.5853C113.825 36.6927 112.943 37.5654 111.817 38.2036C110.71 38.823 109.415 39.1326 107.932 39.1326ZM107.988 36.0076C108.739 36.0076 109.387 35.82 109.931 35.4446C110.494 35.0504 110.935 34.5343 111.254 33.8962C111.573 33.2392 111.733 32.526 111.733 31.7565C111.733 30.8744 111.554 30.1236 111.198 29.5043C110.86 28.8849 110.409 28.4157 109.846 28.0966C109.283 27.7775 108.664 27.618 107.988 27.618C107.256 27.618 106.609 27.7963 106.046 28.1529C105.501 28.5095 105.07 29.0069 104.751 29.645C104.45 30.2644 104.3 30.987 104.3 31.8128C104.3 32.6386 104.46 33.3706 104.779 34.0088C105.117 34.6469 105.567 35.1443 106.13 35.5009C106.693 35.8387 107.313 36.0076 107.988 36.0076Z" fill="#222831"/>
<path d="M117.505 38.7948V24.8308H121.08V26.4356C121.55 25.7787 122.15 25.2907 122.882 24.9716C123.614 24.6525 124.384 24.493 125.191 24.493C126.242 24.493 127.218 24.7182 128.119 25.1687C129.038 25.6004 129.752 26.2854 130.258 27.2239C130.727 26.3605 131.375 25.6942 132.201 25.225C133.045 24.737 133.965 24.493 134.96 24.493C136.03 24.493 136.996 24.7182 137.86 25.1687C138.742 25.6004 139.436 26.2666 139.943 27.1675C140.45 28.0684 140.703 29.1946 140.703 30.5459V38.7948H137.128V31.0527C137.128 30.0016 136.874 29.1664 136.367 28.5471C135.861 27.9277 135.082 27.618 134.031 27.618C132.998 27.618 132.22 27.9277 131.694 28.5471C131.169 29.1664 130.906 30.0016 130.906 31.0527V38.7948H127.33V31.0527C127.33 29.9829 127.058 29.1477 126.514 28.5471C125.988 27.9277 125.228 27.618 124.233 27.618C123.389 27.618 122.648 27.8901 122.009 28.4344C121.39 28.96 121.08 29.8327 121.08 31.0527V38.7948H117.505Z" fill="#222831"/>
<path d="M143.019 44.9885V24.8308H146.594V26.7734C147.138 26.0227 147.814 25.4596 148.621 25.0842C149.447 24.6901 150.338 24.493 151.296 24.493C152.647 24.493 153.801 24.8215 154.759 25.4784C155.735 26.1353 156.476 27.0174 156.983 28.1248C157.508 29.2133 157.771 30.4239 157.771 31.7565C157.771 33.0891 157.508 34.3184 156.983 35.4446C156.457 36.5707 155.706 37.4716 154.73 38.1473C153.773 38.8042 152.628 39.1326 151.296 39.1326C150.113 39.1326 149.128 38.8886 148.34 38.4007C147.57 37.9127 146.998 37.4059 146.622 36.8804V44.9885H143.019ZM150.338 35.9795C151.089 35.9795 151.746 35.7918 152.309 35.4164C152.872 35.0223 153.313 34.5061 153.632 33.868C153.951 33.2299 154.111 32.526 154.111 31.7565C154.111 30.8744 153.933 30.133 153.576 29.5324C153.238 28.913 152.778 28.4438 152.197 28.1248C151.634 27.8057 151.014 27.6462 150.338 27.6462C149.625 27.6462 148.987 27.8245 148.424 28.1811C147.861 28.5377 147.411 29.035 147.073 29.6732C146.754 30.2925 146.594 31.0058 146.594 31.8128C146.594 32.5823 146.754 33.2862 147.073 33.9243C147.392 34.5624 147.833 35.0692 148.396 35.4446C148.959 35.8012 149.607 35.9795 150.338 35.9795Z" fill="#222831"/>
<path d="M164.124 39.1326C163.298 39.1326 162.529 38.9637 161.815 38.6259C161.102 38.288 160.52 37.8094 160.07 37.1901C159.638 36.5519 159.422 35.8012 159.422 34.9378C159.422 33.9055 159.676 33.0609 160.182 32.404C160.689 31.7471 161.384 31.2591 162.266 30.9401C163.167 30.621 164.171 30.4615 165.278 30.4615H168.6C168.6 29.8233 168.497 29.2884 168.291 28.8567C168.103 28.4251 167.812 28.0966 167.418 27.8714C167.042 27.6274 166.573 27.5054 166.01 27.5054C165.353 27.5054 164.762 27.6555 164.236 27.9558C163.73 28.2374 163.42 28.716 163.307 29.3916H159.704C159.798 28.3781 160.145 27.5054 160.745 26.7734C161.346 26.0414 162.116 25.4784 163.054 25.0842C163.992 24.6901 164.997 24.493 166.066 24.493C167.38 24.493 168.488 24.737 169.388 25.225C170.308 25.713 171.012 26.4074 171.5 27.3083C171.988 28.1904 172.232 29.2415 172.232 30.4615V34.7126C172.27 35.1255 172.42 35.407 172.682 35.5572C172.945 35.7073 173.292 35.7824 173.724 35.7824V38.7948C172.842 38.7948 172.101 38.7103 171.5 38.5414C170.918 38.3725 170.44 38.1285 170.064 37.8094C169.689 37.4716 169.37 37.0493 169.107 36.5425C168.675 37.2745 168 37.8939 167.08 38.4007C166.179 38.8886 165.194 39.1326 164.124 39.1326ZM165.166 36.2329C165.785 36.2329 166.348 36.0921 166.855 35.8106C167.38 35.529 167.803 35.1349 168.122 34.6281C168.441 34.1214 168.6 33.5395 168.6 32.8826V32.77H165.503C165.09 32.77 164.696 32.8357 164.321 32.9671C163.946 33.0797 163.645 33.2674 163.42 33.5302C163.195 33.7742 163.082 34.112 163.082 34.5437C163.082 35.1255 163.279 35.5572 163.673 35.8387C164.086 36.1015 164.584 36.2329 165.166 36.2329Z" fill="#222831"/>
<path d="M180.956 39.1326C179.905 39.1326 178.92 38.945 178 38.5696C177.08 38.1754 176.32 37.6218 175.719 36.9085C175.138 36.1953 174.819 35.3601 174.762 34.4029H178.366C178.46 35.0035 178.751 35.4727 179.239 35.8106C179.745 36.1484 180.308 36.3173 180.928 36.3173C181.453 36.3173 181.941 36.2047 182.392 35.9795C182.861 35.7355 183.096 35.3601 183.096 34.8534C183.096 34.4592 182.927 34.1495 182.589 33.9243C182.251 33.6991 181.857 33.5208 181.406 33.3894C180.956 33.258 180.543 33.1454 180.168 33.0516C179.229 32.8263 178.375 32.5636 177.606 32.2633C176.836 31.9442 176.226 31.5125 175.776 30.9682C175.325 30.4052 175.1 29.6638 175.1 28.7441C175.1 27.8432 175.353 27.0737 175.86 26.4356C176.386 25.7974 177.071 25.3188 177.915 24.9998C178.779 24.6619 179.708 24.493 180.703 24.493C182.26 24.493 183.574 24.8871 184.644 25.6754C185.714 26.4637 186.296 27.6274 186.389 29.1664H182.983C182.927 28.5658 182.673 28.1154 182.223 27.8151C181.791 27.496 181.247 27.3365 180.59 27.3365C180.064 27.3365 179.595 27.4303 179.182 27.618C178.769 27.8057 178.563 28.1623 178.563 28.6878C178.563 29.0632 178.732 29.3729 179.07 29.6169C179.408 29.8421 179.811 30.0298 180.28 30.1799C180.749 30.3113 181.162 30.4239 181.519 30.5178C182.495 30.7618 183.349 31.0433 184.081 31.3624C184.832 31.6814 185.423 32.1131 185.855 32.6574C186.286 33.2017 186.511 33.9337 186.53 34.8534C186.53 35.773 186.267 36.5519 185.742 37.1901C185.235 37.8282 184.56 38.3162 183.715 38.654C182.87 38.9731 181.951 39.1326 180.956 39.1326Z" fill="#222831"/>
<path d="M194.29 39.1326C193.239 39.1326 192.254 38.945 191.334 38.5696C190.414 38.1754 189.654 37.6218 189.054 36.9085C188.472 36.1953 188.153 35.3601 188.096 34.4029H191.7C191.794 35.0035 192.085 35.4727 192.573 35.8106C193.08 36.1484 193.643 36.3173 194.262 36.3173C194.788 36.3173 195.276 36.2047 195.726 35.9795C196.195 35.7355 196.43 35.3601 196.43 34.8534C196.43 34.4592 196.261 34.1495 195.923 33.9243C195.585 33.6991 195.191 33.5208 194.741 33.3894C194.29 33.258 193.877 33.1454 193.502 33.0516C192.563 32.8263 191.709 32.5636 190.94 32.2633C190.17 31.9442 189.56 31.5125 189.11 30.9682C188.66 30.4052 188.434 29.6638 188.434 28.7441C188.434 27.8432 188.688 27.0737 189.194 26.4356C189.72 25.7974 190.405 25.3188 191.25 24.9998C192.113 24.6619 193.042 24.493 194.037 24.493C195.595 24.493 196.908 24.8871 197.978 25.6754C199.048 26.4637 199.63 27.6274 199.724 29.1664H196.317C196.261 28.5658 196.008 28.1154 195.557 27.8151C195.125 27.496 194.581 27.3365 193.924 27.3365C193.399 27.3365 192.929 27.4303 192.517 27.618C192.104 27.8057 191.897 28.1623 191.897 28.6878C191.897 29.0632 192.066 29.3729 192.404 29.6169C192.742 29.8421 193.145 30.0298 193.615 30.1799C194.084 30.3113 194.497 30.4239 194.853 30.5178C195.829 30.7618 196.683 31.0433 197.415 31.3624C198.166 31.6814 198.757 32.1131 199.189 32.6574C199.621 33.2017 199.846 33.9337 199.865 34.8534C199.865 35.773 199.602 36.5519 199.076 37.1901C198.569 37.8282 197.894 38.3162 197.049 38.654C196.205 38.9731 195.285 39.1326 194.29 39.1326Z" fill="#222831"/>
<path d="M90.0408 66.406C88.0138 66.406 86.2871 65.9649 84.8606 65.0828C83.4342 64.2007 82.3456 62.9995 81.5949 61.4792C80.8441 59.9402 80.4688 58.1947 80.4688 56.2427C80.4688 54.2908 80.8347 52.5453 81.5667 51.0062C82.2987 49.4672 83.3779 48.2566 84.8043 47.3745C86.2308 46.4736 87.9763 46.0231 90.0408 46.0231C92.4057 46.0231 94.3389 46.6143 95.8404 47.7968C97.3606 48.9604 98.3085 50.6027 98.6838 52.7236H94.7142C94.4703 51.6538 93.9447 50.8185 93.1377 50.2179C92.3494 49.5986 91.2983 49.2889 89.9845 49.2889C88.7833 49.2889 87.7416 49.5704 86.8595 50.1335C85.9962 50.6965 85.3299 51.4942 84.8606 52.5265C84.3914 53.5588 84.1568 54.7975 84.1568 56.2427C84.1568 57.6691 84.3914 58.9079 84.8606 59.9589C85.3299 60.9912 85.9962 61.7889 86.8595 62.352C87.7416 62.8962 88.7833 63.1684 89.9845 63.1684C91.2983 63.1684 92.3494 62.8869 93.1377 62.3238C93.9447 61.742 94.4703 60.9443 94.7142 59.9308H98.6838C98.3085 61.9578 97.3606 63.5438 95.8404 64.6887C94.3389 65.8336 92.4057 66.406 90.0408 66.406Z" fill="#222831"/>
<path d="M104.958 66.406C104.132 66.406 103.363 66.2371 102.65 65.8993C101.936 65.5614 101.355 65.0828 100.904 64.4634C100.473 63.8253 100.257 63.0746 100.257 62.2112C100.257 61.1789 100.51 60.3343 101.017 59.6774C101.524 59.0205 102.218 58.5325 103.1 58.2134C104.001 57.8944 105.005 57.7348 106.113 57.7348H109.435C109.435 57.0967 109.331 56.5618 109.125 56.1301C108.937 55.6984 108.646 55.37 108.252 55.1447C107.877 54.9008 107.408 54.7788 106.845 54.7788C106.188 54.7788 105.596 54.9289 105.071 55.2292C104.564 55.5107 104.254 55.9893 104.142 56.665H100.538C100.632 55.6515 100.979 54.7788 101.58 54.0468C102.18 53.3148 102.95 52.7517 103.888 52.3576C104.827 51.9634 105.831 51.7664 106.901 51.7664C108.215 51.7664 109.322 52.0104 110.223 52.4983C111.143 52.9863 111.846 53.6808 112.334 54.5817C112.822 55.4638 113.066 56.5149 113.066 57.7348V61.986C113.104 62.3989 113.254 62.6804 113.517 62.8306C113.78 62.9807 114.127 63.0558 114.558 63.0558V66.0682C113.676 66.0682 112.935 65.9837 112.334 65.8148C111.753 65.6459 111.274 65.4019 110.899 65.0828C110.523 64.745 110.204 64.3227 109.941 63.8159C109.51 64.5479 108.834 65.1673 107.914 65.674C107.013 66.162 106.028 66.406 104.958 66.406ZM106 63.5062C106.619 63.5062 107.182 63.3655 107.689 63.0839C108.215 62.8024 108.637 62.4083 108.956 61.9015C109.275 61.3947 109.435 60.8129 109.435 60.156V60.0434H106.338C105.925 60.0434 105.531 60.1091 105.155 60.2405C104.78 60.3531 104.48 60.5408 104.254 60.8035C104.029 61.0475 103.917 61.3854 103.917 61.817C103.917 62.3989 104.114 62.8306 104.508 63.1121C104.921 63.3749 105.418 63.5062 106 63.5062Z" fill="#222831"/>
<path d="M116.295 66.0682V52.1042H119.871V54.1875C120.359 53.3993 120.978 52.7986 121.729 52.3857C122.479 51.9728 123.315 51.7664 124.234 51.7664V55.5389H123.277C122.132 55.5389 121.278 55.811 120.715 56.3553C120.152 56.8996 119.871 57.8099 119.871 59.0862V66.0682H116.295Z" fill="#222831"/>
<path d="M132.315 66.406C130.851 66.406 129.584 66.0869 128.515 65.4488C127.463 64.8107 126.647 63.9379 126.065 62.8306C125.483 61.7232 125.192 60.4751 125.192 59.0862C125.192 57.6035 125.493 56.3178 126.093 55.2292C126.694 54.1406 127.529 53.296 128.599 52.6954C129.669 52.076 130.908 51.7664 132.315 51.7664C133.704 51.7664 134.915 52.0667 135.947 52.6673C136.998 53.2679 137.814 54.0937 138.396 55.1447C138.997 56.1958 139.297 57.4064 139.297 58.7765C139.297 59.0205 139.288 59.2645 139.269 59.5085C139.25 59.7337 139.222 59.9496 139.185 60.156H128.824C128.881 60.8129 129.049 61.3947 129.331 61.9015C129.631 62.3895 130.025 62.7743 130.513 63.0558C131.02 63.3185 131.593 63.4499 132.231 63.4499C132.888 63.4499 133.451 63.3092 133.92 63.0276C134.408 62.7461 134.793 62.3144 135.074 61.7326H138.931C138.668 62.5584 138.246 63.3279 137.664 64.0411C137.082 64.7544 136.341 65.3268 135.44 65.7585C134.558 66.1902 133.516 66.406 132.315 66.406ZM128.852 57.763H135.581C135.562 56.8246 135.215 56.0832 134.539 55.5389C133.882 54.9946 133.103 54.7225 132.203 54.7225C131.433 54.7225 130.72 54.9664 130.063 55.4544C129.406 55.9237 129.003 56.6932 128.852 57.763Z" fill="#222831"/>
<path d="M147.876 66.406C146.412 66.406 145.146 66.0869 144.076 65.4488C143.025 64.8107 142.208 63.9379 141.626 62.8306C141.045 61.7232 140.754 60.4751 140.754 59.0862C140.754 57.6035 141.054 56.3178 141.655 55.2292C142.255 54.1406 143.09 53.296 144.16 52.6954C145.23 52.076 146.469 51.7664 147.876 51.7664C149.265 51.7664 150.476 52.0667 151.508 52.6673C152.559 53.2679 153.376 54.0937 153.957 55.1447C154.558 56.1958 154.858 57.4064 154.858 58.7765C154.858 59.0205 154.849 59.2645 154.83 59.5085C154.811 59.7337 154.783 59.9496 154.746 60.156H144.385C144.442 60.8129 144.611 61.3947 144.892 61.9015C145.192 62.3895 145.587 62.7743 146.075 63.0558C146.581 63.3185 147.154 63.4499 147.792 63.4499C148.449 63.4499 149.012 63.3092 149.481 63.0276C149.969 62.7461 150.354 62.3144 150.635 61.7326H154.492C154.23 62.5584 153.807 63.3279 153.226 64.0411C152.644 64.7544 151.902 65.3268 151.001 65.7585C150.119 66.1902 149.078 66.406 147.876 66.406ZM144.414 57.763H151.142C151.123 56.8246 150.776 56.0832 150.101 55.5389C149.444 54.9946 148.665 54.7225 147.764 54.7225C146.994 54.7225 146.281 54.9664 145.624 55.4544C144.967 55.9237 144.564 56.6932 144.414 57.763Z" fill="#222831"/>
<path d="M156.765 66.0682V52.1042H160.341V54.1875C160.829 53.3993 161.448 52.7986 162.199 52.3857C162.95 51.9728 163.785 51.7664 164.705 51.7664V55.5389H163.747C162.602 55.5389 161.748 55.811 161.185 56.3553C160.622 56.8996 160.341 57.8099 160.341 59.0862V66.0682H156.765Z" fill="#222831"/>
<path d="M39.0625 3.12476C53.3572 3.12476 65.857 10.804 72.6656 22.2613C72.8848 22.6303 72.7553 23.1054 72.3836 23.32L62.2346 29.1792C61.8578 29.3967 61.377 29.2639 61.1524 28.8914C56.6398 21.41 48.4364 16.406 39.0625 16.406C24.8239 16.406 13.2812 27.9487 13.2812 42.1873C13.2812 56.4258 24.8239 67.9685 39.0625 67.9685C48.2954 67.9685 56.3932 63.1143 60.9468 55.8195C61.1746 55.4546 61.6499 55.3273 62.0224 55.5424L72.1736 61.403C72.5481 61.6192 72.6763 62.0991 72.4514 62.4685C65.5971 73.7289 53.2089 81.2498 39.0625 81.2498C17.4889 81.2498 0 63.7609 0 42.1873C0 20.6136 17.4889 3.12476 39.0625 3.12476Z" fill="url(#paint0_linear_60_472)"/>
<g filter="url(#filter0_d_60_472)">
<path d="M61.1588 5.17174C61.7235 4.55106 62.7361 5.13571 62.4809 5.93506L49.2541 47.3658C49.22 47.4725 49.1632 47.571 49.0878 47.6539L19.8211 79.824C19.2565 80.4443 18.2442 79.8598 18.499 79.0607L31.7259 37.63C31.76 37.5232 31.8168 37.4248 31.8922 37.3419L61.1588 5.17174ZM42.4649 38.9575C40.545 37.8493 38.0899 38.5075 36.9815 40.4273C35.8733 42.3471 36.5311 44.8018 38.4507 45.9103C40.3705 47.0187 42.8258 46.3612 43.9343 44.4415C45.0428 42.5216 44.3848 40.066 42.4649 38.9575Z" fill="url(#paint1_linear_60_472)"/>
</g>
<defs>
<filter id="filter0_d_60_472" x="14.4587" y="4.91162" width="52.0627" height="83.1721" filterUnits="userSpaceOnUse" color-interpolation-filters="sRGB">
<feFlood flood-opacity="0" result="BackgroundImageFix"/>
<feColorMatrix in="SourceAlpha" type="matrix" values="0 0 0 0 0 0 0 0 0 0 0 0 0 0 0 0 0 0 127 0" result="hardAlpha"/>
<feOffset dy="4"/>
<feGaussianBlur stdDeviation="2"/>
<feComposite in2="hardAlpha" operator="out"/>
<feColorMatrix type="matrix" values="0 0 0 0 0 0 0 0 0 0 0 0 0 0 0 0 0 0 0.25 0"/>
<feBlend mode="normal" in2="BackgroundImageFix" result="effect1_dropShadow_60_472"/>
<feBlend mode="normal" in="SourceGraphic" in2="effect1_dropShadow_60_472" result="shape"/>
</filter>
<linearGradient id="paint0_linear_60_472" x1="10.9375" y1="5.46851" x2="66.4062" y2="82.4216" gradientUnits="userSpaceOnUse">
<stop stop-color="#48B9FF"/>
<stop offset="1" stop-color="#0D439B"/>
</linearGradient>
<linearGradient id="paint1_linear_60_472" x1="37.5045" y1="17.19" x2="46.9067" y2="82.3957" gradientUnits="userSpaceOnUse">
<stop offset="0.295537" stop-color="#005DF4"/>
<stop offset="1" stop-color="#0D439B"/>
</linearGradient>
</defs>
</svg>
