<svg width="118" height="56" viewBox="0 0 118 56" fill="none" xmlns="http://www.w3.org/2000/svg">
<path d="M52.9681 23.0204C51.7757 23.0204 50.7599 22.7609 49.9208 22.242C49.0816 21.7231 48.4413 21.0165 47.9996 20.1221C47.558 19.2168 47.3372 18.19 47.3372 17.0417C47.3372 15.8934 47.5525 14.8666 47.9831 13.9612C48.4137 13.0559 49.0485 12.3437 49.8876 11.8248C50.7268 11.2948 51.7536 11.0298 52.9681 11.0298C54.3593 11.0298 55.4965 11.3776 56.3798 12.0732C57.2741 12.7578 57.8317 13.7239 58.0525 14.9715H55.7173C55.5738 14.3422 55.2646 13.8508 54.7899 13.4975C54.3261 13.1332 53.7078 12.951 52.935 12.951C52.2283 12.951 51.6156 13.1166 51.0966 13.4478C50.5887 13.7791 50.1968 14.2483 49.9208 14.8556C49.6447 15.4628 49.5067 16.1915 49.5067 17.0417C49.5067 17.8808 49.6447 18.6095 49.9208 19.2278C50.1968 19.8351 50.5887 20.3043 51.0966 20.6355C51.6156 20.9557 52.2283 21.1158 52.935 21.1158C53.7078 21.1158 54.3261 20.9502 54.7899 20.619C55.2646 20.2767 55.5738 19.8075 55.7173 19.2113H58.0525C57.8317 20.4037 57.2741 21.3367 56.3798 22.0102C55.4965 22.6837 54.3593 23.0204 52.9681 23.0204Z" fill="#222831"/>
<path d="M63.4928 23.0204C62.6647 23.0204 61.925 22.8438 61.2736 22.4904C60.6332 22.1261 60.1308 21.6182 59.7665 20.9668C59.4021 20.3154 59.2199 19.5646 59.2199 18.7144C59.2199 17.8201 59.4132 17.0527 59.7996 16.4124C60.1971 15.7609 60.7215 15.2641 61.3729 14.9218C62.0354 14.5795 62.7641 14.4084 63.5591 14.4084C64.3871 14.4084 65.1269 14.5906 65.7783 14.9549C66.4297 15.3082 66.9431 15.8051 67.3185 16.4455C67.705 17.0859 67.8982 17.8422 67.8982 18.7144C67.8982 19.5425 67.7105 20.2822 67.3351 20.9337C66.9597 21.5851 66.4408 22.0985 65.7783 22.4739C65.1269 22.8382 64.3651 23.0204 63.4928 23.0204ZM63.5259 21.1821C63.9676 21.1821 64.3485 21.0717 64.6687 20.8508C64.9999 20.619 65.2594 20.3154 65.4471 19.94C65.6348 19.5535 65.7286 19.134 65.7286 18.6813C65.7286 18.1624 65.6237 17.7207 65.414 17.3564C65.2152 16.992 64.9502 16.716 64.619 16.5283C64.2878 16.3406 63.9234 16.2467 63.5259 16.2467C63.0953 16.2467 62.7144 16.3516 62.3832 16.5614C62.063 16.7712 61.8091 17.0638 61.6214 17.4392C61.4447 17.8035 61.3564 18.2286 61.3564 18.7144C61.3564 19.2002 61.4502 19.6308 61.6379 20.0062C61.8367 20.3816 62.1017 20.6742 62.4329 20.884C62.7641 21.0827 63.1285 21.1821 63.5259 21.1821Z" fill="#222831"/>
<path d="M69.1243 22.8217V14.6071H71.2276V15.5512C71.5036 15.1647 71.8569 14.8776 72.2875 14.6899C72.7181 14.5023 73.1708 14.4084 73.6456 14.4084C74.2639 14.4084 74.838 14.5409 75.368 14.8059C75.909 15.0598 76.3285 15.4628 76.6267 16.0149C76.9027 15.507 77.2836 15.115 77.7694 14.839C78.2662 14.5519 78.8073 14.4084 79.3924 14.4084C80.0218 14.4084 80.5904 14.5409 81.0983 14.8059C81.6172 15.0598 82.0257 15.4518 82.3238 15.9818C82.6219 16.5117 82.771 17.1742 82.771 17.9691V22.8217H80.6677V18.2672C80.6677 17.6489 80.5186 17.1576 80.2205 16.7933C79.9224 16.4289 79.4642 16.2467 78.8459 16.2467C78.2386 16.2467 77.7804 16.4289 77.4713 16.7933C77.1621 17.1576 77.0076 17.6489 77.0076 18.2672V22.8217H74.9043V18.2672C74.9043 17.6379 74.7442 17.1466 74.424 16.7933C74.1148 16.4289 73.6677 16.2467 73.0825 16.2467C72.5856 16.2467 72.1495 16.4068 71.7741 16.727C71.4098 17.0362 71.2276 17.5496 71.2276 18.2672V22.8217H69.1243Z" fill="#222831"/>
<path d="M84.1332 26.4652V14.6071H86.2365V15.7499C86.5567 15.3082 86.9542 14.977 87.4289 14.7562C87.9147 14.5243 88.4392 14.4084 89.0023 14.4084C89.7972 14.4084 90.4763 14.6016 91.0393 14.9881C91.6135 15.3745 92.0496 15.8934 92.3477 16.5448C92.6569 17.1852 92.8114 17.8974 92.8114 18.6813C92.8114 19.4652 92.6569 20.1884 92.3477 20.8508C92.0386 21.5133 91.5969 22.0433 91.0228 22.4408C90.4597 22.8272 89.7862 23.0204 89.0023 23.0204C88.3067 23.0204 87.727 22.8769 87.2633 22.5898C86.8106 22.3027 86.4739 22.0046 86.2531 21.6955V26.4652H84.1332ZM88.4392 21.1655C88.8808 21.1655 89.2673 21.0551 89.5985 20.8343C89.9297 20.6024 90.1892 20.2988 90.3769 19.9234C90.5646 19.548 90.6584 19.134 90.6584 18.6813C90.6584 18.1624 90.5535 17.7262 90.3438 17.3729C90.145 17.0086 89.8745 16.7325 89.5322 16.5448C89.201 16.3571 88.8367 16.2633 88.4392 16.2633C88.0196 16.2633 87.6442 16.3682 87.313 16.578C86.9818 16.7877 86.7168 17.0803 86.518 17.4557C86.3303 17.8201 86.2365 18.2396 86.2365 18.7144C86.2365 19.1671 86.3303 19.5811 86.518 19.9565C86.7057 20.3319 86.9652 20.63 87.2964 20.8508C87.6277 21.0606 88.0086 21.1655 88.4392 21.1655Z" fill="#222831"/>
<path d="M96.5487 23.0204C96.0628 23.0204 95.6102 22.921 95.1906 22.7223C94.771 22.5236 94.4288 22.242 94.1638 21.8777C93.9098 21.5023 93.7829 21.0606 93.7829 20.5527C93.7829 19.9455 93.9319 19.4486 94.23 19.0622C94.5281 18.6758 94.9367 18.3887 95.4556 18.201C95.9856 18.0133 96.5763 17.9195 97.2277 17.9195H99.1819C99.1819 17.5441 99.1212 17.2294 98.9998 16.9754C98.8894 16.7215 98.7182 16.5283 98.4864 16.3958C98.2655 16.2523 97.9895 16.1805 97.6583 16.1805C97.2718 16.1805 96.924 16.2688 96.6149 16.4455C96.3168 16.6111 96.1346 16.8926 96.0684 17.2901H93.9485C94.0037 16.6939 94.208 16.1805 94.5613 15.7499C94.9146 15.3193 95.3673 14.9881 95.9193 14.7562C96.4714 14.5243 97.0621 14.4084 97.6914 14.4084C98.4643 14.4084 99.1157 14.5519 99.6457 14.839C100.187 15.1261 100.601 15.5346 100.888 16.0646C101.175 16.5835 101.318 17.2018 101.318 17.9195V20.4202C101.34 20.6632 101.429 20.8288 101.583 20.9171C101.738 21.0054 101.942 21.0496 102.196 21.0496V22.8217C101.677 22.8217 101.241 22.772 100.888 22.6726C100.546 22.5732 100.264 22.4297 100.043 22.242C99.8223 22.0433 99.6346 21.7949 99.48 21.4967C99.2261 21.9273 98.8286 22.2917 98.2876 22.5898C97.7576 22.8769 97.178 23.0204 96.5487 23.0204ZM97.1614 21.3146C97.5258 21.3146 97.857 21.2318 98.1551 21.0661C98.4643 20.9005 98.7127 20.6687 98.9004 20.3706C99.0881 20.0725 99.1819 19.7302 99.1819 19.3437V19.2775H97.3602C97.1173 19.2775 96.8854 19.3161 96.6646 19.3934C96.4438 19.4597 96.2671 19.5701 96.1346 19.7247C96.0021 19.8682 95.9359 20.0669 95.9359 20.3209C95.9359 20.6632 96.0518 20.9171 96.2837 21.0827C96.5266 21.2373 96.8192 21.3146 97.1614 21.3146Z" fill="#222831"/>
<path d="M106.45 23.0204C105.832 23.0204 105.252 22.91 104.711 22.6892C104.17 22.4573 103.723 22.1316 103.37 21.712C103.028 21.2925 102.84 20.8012 102.807 20.2381H104.927C104.982 20.5914 105.153 20.8674 105.44 21.0661C105.738 21.2649 106.069 21.3643 106.434 21.3643C106.743 21.3643 107.03 21.298 107.295 21.1655C107.571 21.022 107.709 20.8012 107.709 20.5031C107.709 20.2712 107.61 20.089 107.411 19.9565C107.212 19.824 106.98 19.7191 106.715 19.6419C106.45 19.5646 106.207 19.4983 105.987 19.4431C105.435 19.3106 104.932 19.156 104.48 18.9794C104.027 18.7917 103.668 18.5378 103.403 18.2176C103.138 17.8863 103.006 17.4502 103.006 16.9092C103.006 16.3792 103.155 15.9265 103.453 15.5512C103.762 15.1758 104.165 14.8942 104.662 14.7065C105.17 14.5078 105.716 14.4084 106.301 14.4084C107.218 14.4084 107.991 14.6403 108.62 15.104C109.249 15.5677 109.592 16.2523 109.647 17.1576H107.643C107.61 16.8043 107.461 16.5393 107.196 16.3627C106.942 16.175 106.622 16.0811 106.235 16.0811C105.926 16.0811 105.65 16.1363 105.407 16.2467C105.164 16.3571 105.043 16.5669 105.043 16.8761C105.043 17.0969 105.142 17.2791 105.341 17.4226C105.54 17.5551 105.777 17.6655 106.053 17.7538C106.329 17.8311 106.572 17.8974 106.782 17.9526C107.356 18.0961 107.858 18.2617 108.289 18.4494C108.73 18.6371 109.078 18.8911 109.332 19.2113C109.586 19.5314 109.719 19.962 109.73 20.5031C109.73 21.0441 109.575 21.5023 109.266 21.8777C108.968 22.2531 108.57 22.5401 108.073 22.7389C107.577 22.9266 107.036 23.0204 106.45 23.0204Z" fill="#222831"/>
<path d="M114.294 23.0204C113.676 23.0204 113.097 22.91 112.556 22.6892C112.015 22.4573 111.567 22.1316 111.214 21.712C110.872 21.2925 110.684 20.8012 110.651 20.2381H112.771C112.826 20.5914 112.997 20.8674 113.284 21.0661C113.582 21.2649 113.914 21.3643 114.278 21.3643C114.587 21.3643 114.874 21.298 115.139 21.1655C115.415 21.022 115.553 20.8012 115.553 20.5031C115.553 20.2712 115.454 20.089 115.255 19.9565C115.056 19.824 114.824 19.7191 114.559 19.6419C114.294 19.5646 114.052 19.4983 113.831 19.4431C113.279 19.3106 112.776 19.156 112.324 18.9794C111.871 18.7917 111.512 18.5378 111.247 18.2176C110.982 17.8863 110.85 17.4502 110.85 16.9092C110.85 16.3792 110.999 15.9265 111.297 15.5512C111.606 15.1758 112.009 14.8942 112.506 14.7065C113.014 14.5078 113.56 14.4084 114.145 14.4084C115.062 14.4084 115.835 14.6403 116.464 15.104C117.093 15.5677 117.436 16.2523 117.491 17.1576H115.487C115.454 16.8043 115.305 16.5393 115.04 16.3627C114.786 16.175 114.466 16.0811 114.079 16.0811C113.77 16.0811 113.494 16.1363 113.251 16.2467C113.008 16.3571 112.887 16.5669 112.887 16.8761C112.887 17.0969 112.986 17.2791 113.185 17.4226C113.384 17.5551 113.621 17.6655 113.897 17.7538C114.173 17.8311 114.416 17.8974 114.626 17.9526C115.2 18.0961 115.702 18.2617 116.133 18.4494C116.574 18.6371 116.922 18.8911 117.176 19.2113C117.43 19.5314 117.563 19.962 117.574 20.5031C117.574 21.0441 117.419 21.5023 117.11 21.8777C116.812 22.2531 116.414 22.5401 115.918 22.7389C115.421 22.9266 114.88 23.0204 114.294 23.0204Z" fill="#222831"/>
<path d="M52.9681 39.0644C51.7757 39.0644 50.7599 38.805 49.9208 38.286C49.0816 37.7671 48.4413 37.0605 47.9996 36.1661C47.558 35.2608 47.3372 34.234 47.3372 33.0857C47.3372 31.9374 47.5525 30.9106 47.9831 30.0052C48.4137 29.0999 49.0485 28.3877 49.8876 27.8688C50.7268 27.3388 51.7536 27.0739 52.9681 27.0739C54.3593 27.0739 55.4965 27.4216 56.3798 28.1172C57.2741 28.8018 57.8317 29.7679 58.0525 31.0155H55.7173C55.5738 30.3862 55.2646 29.8948 54.7899 29.5415C54.3261 29.1772 53.7078 28.995 52.935 28.995C52.2283 28.995 51.6156 29.1606 51.0966 29.4918C50.5887 29.8231 50.1968 30.2923 49.9208 30.8996C49.6447 31.5068 49.5067 32.2355 49.5067 33.0857C49.5067 33.9248 49.6447 34.6535 49.9208 35.2718C50.1968 35.8791 50.5887 36.3483 51.0966 36.6796C51.6156 36.9997 52.2283 37.1598 52.935 37.1598C53.7078 37.1598 54.3261 36.9942 54.7899 36.663C55.2646 36.3207 55.5738 35.8515 55.7173 35.2553H58.0525C57.8317 36.4477 57.2741 37.3807 56.3798 38.0542C55.4965 38.7277 54.3593 39.0644 52.9681 39.0644Z" fill="#222831"/>
<path d="M61.7435 39.0644C61.2577 39.0644 60.805 38.965 60.3855 38.7663C59.9659 38.5676 59.6236 38.286 59.3586 37.9217C59.1047 37.5463 58.9777 37.1046 58.9777 36.5967C58.9777 35.9895 59.1268 35.4926 59.4249 35.1062C59.723 34.7198 60.1315 34.4327 60.6504 34.245C61.1804 34.0573 61.7711 33.9635 62.4225 33.9635H64.3768C64.3768 33.5881 64.3161 33.2734 64.1946 33.0194C64.0842 32.7655 63.9131 32.5723 63.6812 32.4398C63.4604 32.2963 63.1844 32.2245 62.8531 32.2245C62.4667 32.2245 62.1189 32.3128 61.8098 32.4895C61.5116 32.6551 61.3295 32.9366 61.2632 33.3341H59.1433C59.1986 32.7379 59.4028 32.2245 59.7561 31.7939C60.1094 31.3633 60.5621 31.0321 61.1142 30.8002C61.6662 30.5683 62.2569 30.4524 62.8863 30.4524C63.6591 30.4524 64.3106 30.5959 64.8405 30.883C65.3815 31.1701 65.7956 31.5786 66.0826 32.1086C66.3697 32.6275 66.5132 33.2458 66.5132 33.9635V36.4643C66.5353 36.7072 66.6236 36.8728 66.7782 36.9611C66.9328 37.0494 67.1371 37.0936 67.391 37.0936V38.8657C66.8721 38.8657 66.436 38.816 66.0826 38.7166C65.7404 38.6173 65.4588 38.4737 65.238 38.286C65.0172 38.0873 64.8295 37.8389 64.6749 37.5408C64.421 37.9714 64.0235 38.3357 63.4825 38.6338C62.9525 38.9209 62.3728 39.0644 61.7435 39.0644ZM62.3563 37.3586C62.7206 37.3586 63.0519 37.2758 63.35 37.1102C63.6591 36.9445 63.9076 36.7127 64.0953 36.4146C64.2829 36.1165 64.3768 35.7742 64.3768 35.3878V35.3215H62.555C62.3121 35.3215 62.0803 35.3601 61.8594 35.4374C61.6386 35.5037 61.462 35.6141 61.3295 35.7687C61.197 35.9122 61.1307 36.1109 61.1307 36.3649C61.1307 36.7072 61.2467 36.9611 61.4785 37.1267C61.7214 37.2813 62.014 37.3586 62.3563 37.3586Z" fill="#222831"/>
<path d="M68.4126 38.8657V30.6511H70.516V31.8767C70.803 31.413 71.1674 31.0597 71.609 30.8168C72.0507 30.5739 72.542 30.4524 73.083 30.4524V32.6717H72.5199C71.8464 32.6717 71.344 32.8318 71.0128 33.1519C70.6816 33.4721 70.516 34.0076 70.516 34.7584V38.8657H68.4126Z" fill="#222831"/>
<path d="M77.8367 39.0644C76.9755 39.0644 76.2302 38.8767 75.6009 38.5013C74.9826 38.1259 74.5023 37.6125 74.16 36.9611C73.8177 36.3097 73.6466 35.5754 73.6466 34.7584C73.6466 33.8862 73.8233 33.1299 74.1766 32.4895C74.5299 31.8491 75.0212 31.3523 75.6506 30.9989C76.2799 30.6346 77.0086 30.4524 77.8367 30.4524C78.6537 30.4524 79.3659 30.6291 79.9731 30.9824C80.5914 31.3357 81.0717 31.8215 81.414 32.4398C81.7673 33.0581 81.9439 33.7702 81.9439 34.5762C81.9439 34.7198 81.9384 34.8633 81.9274 35.0068C81.9163 35.1393 81.8998 35.2663 81.8777 35.3878H75.7831C75.8162 35.7742 75.9155 36.1165 76.0812 36.4146C76.2578 36.7016 76.4897 36.928 76.7767 37.0936C77.0749 37.2482 77.4116 37.3255 77.787 37.3255C78.1734 37.3255 78.5047 37.2426 78.7807 37.077C79.0678 36.9114 79.2941 36.6575 79.4597 36.3152H81.7286C81.5741 36.801 81.3257 37.2537 80.9834 37.6732C80.6411 38.0928 80.205 38.4296 79.675 38.6835C79.1561 38.9374 78.5433 39.0644 77.8367 39.0644ZM75.7996 33.98H79.7578C79.7468 33.428 79.5425 32.9918 79.145 32.6717C78.7586 32.3515 78.3004 32.1914 77.7704 32.1914C77.3178 32.1914 76.8982 32.3349 76.5118 32.622C76.1253 32.898 75.8879 33.3507 75.7996 33.98Z" fill="#222831"/>
<path d="M86.9908 39.0644C86.1296 39.0644 85.3844 38.8767 84.755 38.5013C84.1367 38.1259 83.6564 37.6125 83.3142 36.9611C82.9719 36.3097 82.8007 35.5754 82.8007 34.7584C82.8007 33.8862 82.9774 33.1299 83.3307 32.4895C83.684 31.8491 84.1754 31.3523 84.8047 30.9989C85.434 30.6346 86.1627 30.4524 86.9908 30.4524C87.8079 30.4524 88.52 30.6291 89.1273 30.9824C89.7456 31.3357 90.2258 31.8215 90.5681 32.4398C90.9214 33.0581 91.0981 33.7702 91.0981 34.5762C91.0981 34.7198 91.0926 34.8633 91.0815 35.0068C91.0705 35.1393 91.0539 35.2663 91.0318 35.3878H84.9372C84.9703 35.7742 85.0697 36.1165 85.2353 36.4146C85.412 36.7016 85.6438 36.928 85.9309 37.0936C86.229 37.2482 86.5657 37.3255 86.9411 37.3255C87.3276 37.3255 87.6588 37.2426 87.9348 37.077C88.2219 36.9114 88.4482 36.6575 88.6139 36.3152H90.8828C90.7282 36.801 90.4798 37.2537 90.1375 37.6732C89.7952 38.0928 89.3591 38.4296 88.8292 38.6835C88.3102 38.9374 87.6974 39.0644 86.9908 39.0644ZM84.9538 33.98H88.912C88.9009 33.428 88.6967 32.9918 88.2992 32.6717C87.9128 32.3515 87.4545 32.1914 86.9246 32.1914C86.4719 32.1914 86.0523 32.3349 85.6659 32.622C85.2795 32.898 85.0421 33.3507 84.9538 33.98Z" fill="#222831"/>
<path d="M92.2199 38.8657V30.6511H94.3232V31.8767C94.6103 31.413 94.9746 31.0597 95.4163 30.8168C95.8579 30.5739 96.3492 30.4524 96.8902 30.4524V32.6717H96.3271C95.6536 32.6717 95.1513 32.8318 94.82 33.1519C94.4888 33.4721 94.3232 34.0076 94.3232 34.7584V38.8657H92.2199Z" fill="#222831"/>
<path d="M22.9792 1.8382C31.3883 1.8382 38.7415 6.35562 42.7467 13.0956C42.8757 13.3127 42.7995 13.5921 42.5808 13.7184L36.6105 17.1652C36.3889 17.2931 36.106 17.215 35.9739 16.9958C33.3193 12.5948 28.4935 9.65111 22.9792 9.65111C14.6031 9.65111 7.81291 16.4413 7.81291 24.8174C7.81291 33.1934 14.6031 39.9836 22.9792 39.9836C28.4105 39.9836 33.1742 37.128 35.8529 32.8367C35.9869 32.6221 36.2666 32.5472 36.4857 32.6737L42.4573 36.1213C42.6776 36.2485 42.753 36.5308 42.6207 36.7481C38.5885 43.3722 31.301 47.7965 22.9792 47.7965C10.2881 47.7965 0 37.5084 0 24.8174C0 12.1263 10.2881 1.8382 22.9792 1.8382Z" fill="url(#paint0_linear_16_22)"/>
<g filter="url(#filter0_d_16_22)">
<path d="M35.9777 3.04233C36.3099 2.6772 36.9056 3.02113 36.7555 3.49137L28.9746 27.8637C28.9545 27.9265 28.9211 27.9844 28.8767 28.0331L11.6601 46.9578C11.328 47.3226 10.7325 46.9788 10.8824 46.5087L18.6633 22.1364C18.6834 22.0736 18.7168 22.0157 18.7611 21.967L35.9777 3.04233ZM24.9807 22.9174C23.8513 22.2654 22.407 22.6526 21.755 23.782C21.1031 24.9113 21.49 26.3554 22.6193 27.0075C23.7486 27.6595 25.193 27.2727 25.8451 26.1434C26.4972 25.014 26.1101 23.5694 24.9807 22.9174Z" fill="url(#paint1_linear_16_22)"/>
</g>
<defs>
<filter id="filter0_d_16_22" x="6.85864" y="2.88934" width="33.9207" height="52.2213" filterUnits="userSpaceOnUse" color-interpolation-filters="sRGB">
<feFlood flood-opacity="0" result="BackgroundImageFix"/>
<feColorMatrix in="SourceAlpha" type="matrix" values="0 0 0 0 0 0 0 0 0 0 0 0 0 0 0 0 0 0 127 0" result="hardAlpha"/>
<feOffset dy="4"/>
<feGaussianBlur stdDeviation="2"/>
<feComposite in2="hardAlpha" operator="out"/>
<feColorMatrix type="matrix" values="0 0 0 0 0 0 0 0 0 0 0 0 0 0 0 0 0 0 0.25 0"/>
<feBlend mode="normal" in2="BackgroundImageFix" result="effect1_dropShadow_16_22"/>
<feBlend mode="normal" in="SourceGraphic" in2="effect1_dropShadow_16_22" result="shape"/>
</filter>
<linearGradient id="paint0_linear_16_22" x1="6.43416" y1="3.21694" x2="39.0646" y2="48.4859" gradientUnits="userSpaceOnUse">
<stop stop-color="#48B9FF"/>
<stop offset="1" stop-color="#0D439B"/>
</linearGradient>
<linearGradient id="paint1_linear_16_22" x1="22.0626" y1="10.1123" x2="27.5936" y2="48.4706" gradientUnits="userSpaceOnUse">
<stop offset="0.295537" stop-color="#005DF4"/>
<stop offset="1" stop-color="#0D439B"/>
</linearGradient>
</defs>
</svg>
