<svg width="19" height="18" viewBox="0 0 19 18" fill="none" xmlns="http://www.w3.org/2000/svg">
<path d="M1.02675 7.38364L7.82323 12.0155C8.42909 12.4267 8.73207 12.6323 9.05951 12.7123C9.34879 12.7828 9.65045 12.7828 9.93983 12.7123C10.2673 12.6323 10.5702 12.4267 11.1761 12.0155L17.9726 7.38364M7.89265 1.67997L2.41491 5.18271C1.89836 5.513 1.6401 5.67816 1.45277 5.90141C1.28697 6.09901 1.16222 6.32877 1.08605 6.57682C1 6.85708 1 7.16761 1 7.78868V13.9228C1 14.9999 1 15.5385 1.20588 15.9499C1.38697 16.3118 1.67593 16.606 2.03135 16.7904C2.4354 17 2.96434 17 4.02222 17H14.9778C16.0356 17 16.5646 17 16.9687 16.7904C17.3241 16.606 17.6131 16.3118 17.7941 15.9499C18 15.5385 18 14.9999 18 13.9228V7.78868C18 7.16761 18 6.85708 17.914 6.57682C17.8377 6.32877 17.7131 6.09901 17.5472 5.90141C17.3599 5.67816 17.1016 5.513 16.5851 5.18271L11.1073 1.67997C10.5243 1.30721 10.2329 1.12084 9.92018 1.04819C9.64355 0.983938 9.35644 0.983938 9.07982 1.04819C8.76711 1.12084 8.47566 1.30721 7.89265 1.67997Z" stroke="#393E46" stroke-linecap="round" stroke-linejoin="round"/>
</svg>
