<svg width="22" height="15" viewBox="0 0 22 15" fill="none" xmlns="http://www.w3.org/2000/svg">
<path d="M4.03585 10.1778C3.34528 9.28059 3 8.83201 3 7.5C3 6.16799 3.34528 5.71943 4.03585 4.82227C5.41472 3.03089 7.72721 1 11.125 1C14.5228 1 16.8352 3.03089 18.2141 4.82227C18.9047 5.71943 19.25 6.16799 19.25 7.5C19.25 8.83201 18.9047 9.28059 18.2141 10.1778C16.8352 11.9691 14.5228 14 11.125 14C7.72721 14 5.41472 11.9691 4.03585 10.1778Z" stroke="black" stroke-opacity="0.5" stroke-width="1.5"/>
<path d="M13.5625 7.5C13.5625 8.84623 12.4712 9.9375 11.125 9.9375C9.77877 9.9375 8.6875 8.84623 8.6875 7.5C8.6875 6.15377 9.77877 5.0625 11.125 5.0625C12.4712 5.0625 13.5625 6.15377 13.5625 7.5Z" stroke="black" stroke-opacity="0.5" stroke-width="1.5"/>
<path d="M1 1L21 13" stroke="black" stroke-opacity="0.5" stroke-width="1.5" stroke-linecap="round"/>
</svg>
