<svg width="40" height="40" viewBox="0 0 40 40" fill="none" xmlns="http://www.w3.org/2000/svg">
<rect width="40" height="40" rx="5" fill="#EEEEEE"/>
<path d="M26 29V30C26.5523 30 27 29.5523 27 29H26ZM14 29H13C13 29.5523 13.4477 30 14 30V29ZM17 14C16.4477 14 16 14.4477 16 15C16 15.5523 16.4477 16 17 16V14ZM18 16C18.5523 16 19 15.5523 19 15C19 14.4477 18.5523 14 18 14V16ZM17 17C16.4477 17 16 17.4477 16 18C16 18.5523 16.4477 19 17 19V17ZM18 19C18.5523 19 19 18.5523 19 18C19 17.4477 18.5523 17 18 17V19ZM22 17C21.4477 17 21 17.4477 21 18C21 18.5523 21.4477 19 22 19V17ZM23 19C23.5523 19 24 18.5523 24 18C24 17.4477 23.5523 17 23 17V19ZM22 20C21.4477 20 21 20.4477 21 21C21 21.5523 21.4477 22 22 22V20ZM23 22C23.5523 22 24 21.5523 24 21C24 20.4477 23.5523 20 23 20V22ZM17 20C16.4477 20 16 20.4477 16 21C16 21.5523 16.4477 22 17 22V20ZM18 22C18.5523 22 19 21.5523 19 21C19 20.4477 18.5523 20 18 20V22ZM22 14C21.4477 14 21 14.4477 21 15C21 15.5523 21.4477 16 22 16V14ZM23 16C23.5523 16 24 15.5523 24 15C24 14.4477 23.5523 14 23 14V16ZM15.6 12H24.4V10H15.6V12ZM25 12.6V29H27V12.6H25ZM26 28H14V30H26V28ZM15 29V12.6H13V29H15ZM24.4 12C24.6965 12 24.8588 12.0008 24.9754 12.0103C25.0803 12.0189 25.0575 12.0293 25 12L25.908 10.218C25.6366 10.0797 25.3668 10.0356 25.1382 10.017C24.9213 9.99922 24.6635 10 24.4 10V12ZM27 12.6C27 12.3365 27.0008 12.0787 26.9831 11.8618C26.9644 11.6332 26.9203 11.3634 26.782 11.092L25 12C24.9707 11.9425 24.9811 11.9197 24.9897 12.0246C24.9992 12.1412 25 12.3035 25 12.6H27ZM25 12L26.782 11.092C26.5903 10.7157 26.2843 10.4097 25.908 10.218L25 12ZM15.6 10C15.3365 10 15.0787 9.99922 14.8618 10.017C14.6332 10.0356 14.3634 10.0797 14.092 10.218L15 12C14.9425 12.0293 14.9197 12.0189 15.0246 12.0103C15.1412 12.0008 15.3035 12 15.6 12V10ZM15 12.6C15 12.3035 15.0008 12.1412 15.0103 12.0246C15.0189 11.9197 15.0293 11.9425 15 12L13.218 11.092C13.0797 11.3634 13.0356 11.6332 13.017 11.8618C12.9992 12.0787 13 12.3365 13 12.6H15ZM14.092 10.218C13.7157 10.4097 13.4097 10.7157 13.218 11.092L15 12L14.092 10.218ZM17 16H18V14H17V16ZM17 19H18V17H17V19ZM22 19H23V17H22V19ZM22 22H23V20H22V22ZM17 22H18V20H17V22ZM22 16H23V14H22V16ZM21 26V29H23V26H21ZM19 29V26H17V29H19ZM20 25C20.5523 25 21 25.4477 21 26H23C23 24.3431 21.6569 23 20 23V25ZM20 23C18.3431 23 17 24.3431 17 26H19C19 25.4477 19.4477 25 20 25V23Z" fill="#393E46" fill-opacity="0.5"/>
</svg>
