<svg xmlns="http://www.w3.org/2000/svg" class="rounded-xl" viewBox="0 0 500.94 667.92"><rect width="500.94" height="667.92" fill="#FFFFFF" id="bg" class="bg"/><g><g transform="translate(0.00,&#10;                                0.00) rotate(0, 62.6175, 62.6175)"><svg xmlns="http://www.w3.org/2000/svg" id="Layer_1" data-name="Layer 1" viewBox="0 0 100 100" width="125.235" height="125.235"><circle cx="50" cy="50" r="50" fill="#005DF4"/></svg></g><g transform="translate(125.23,&#10;                                0.00) rotate(0, 62.6175, 62.6175)"><svg xmlns="http://www.w3.org/2000/svg" id="Layer_1" data-name="Layer 1" viewBox="0 0 100 100" width="125.235" height="125.235"><path d="M50,100h0A50,50,0,0,1,0,50V0H100V50A50,50,0,0,1,50,100Z" fill="#48B9FF"/></svg></g><g transform="translate(0.00,&#10;                                125.23) rotate(0, 62.6175, 62.6175)"><svg xmlns="http://www.w3.org/2000/svg" id="Layer_1" data-name="Layer 1" viewBox="0 0 100 100" width="125.235" height="125.235"><path d="M100,100A50,50,0,0,0,0,100Z" fill="#D6EEFF"/></svg></g><g transform="translate(125.23,&#10;                                125.23) rotate(0, 62.6175, 62.6175)"><svg xmlns="http://www.w3.org/2000/svg" id="Layer_1" data-name="Layer 1" viewBox="0 0 100 100" width="125.235" height="125.235"><path d="M50,100a50,50,0,1,1,50-50v50Z" fill="#0E295D"/></svg></g><g transform="translate(250.47,&#10;                                0.00) rotate(0, 62.6175, 62.6175)"><svg xmlns="http://www.w3.org/2000/svg" id="Layer_1" data-name="Layer 1" viewBox="0 0 100 100" width="125.235" height="125.235"><circle cx="50" cy="50" r="50" fill="#005DF4"/></svg></g><g transform="translate(375.70,&#10;                                0.00) rotate(0, 62.6175, 62.6175)"><svg xmlns="http://www.w3.org/2000/svg" id="Layer_1" data-name="Layer 1" viewBox="0 0 100 100" width="125.235" height="125.235"><path d="M50,100h0A50,50,0,0,1,0,50V0H100V50A50,50,0,0,1,50,100Z" fill="#48B9FF"/></svg></g><g transform="translate(250.47,&#10;                                125.23) rotate(0, 62.6175, 62.6175)"><svg xmlns="http://www.w3.org/2000/svg" id="Layer_1" data-name="Layer 1" viewBox="0 0 100 100" width="125.235" height="125.235"><path d="M100,100A50,50,0,0,0,0,100Z" fill="#D6EEFF"/></svg></g><g transform="translate(375.70,&#10;                                125.23) rotate(0, 62.6175, 62.6175)"><svg xmlns="http://www.w3.org/2000/svg" id="Layer_1" data-name="Layer 1" viewBox="0 0 100 100" width="125.235" height="125.235"><path d="M50,100a50,50,0,1,1,50-50v50Z" fill="#0E295D"/></svg></g></g><g><g transform="translate(0.00,&#10;                                250.47) rotate(0, 62.6175, 62.6175)"><svg xmlns="http://www.w3.org/2000/svg" id="Layer_1" data-name="Layer 1" viewBox="0 0 100 100" width="125.235" height="125.235"><circle cx="50" cy="50" r="50" fill="#005DF4"/></svg></g><g transform="translate(125.23,&#10;                                250.47) rotate(0, 62.6175, 62.6175)"><svg xmlns="http://www.w3.org/2000/svg" id="Layer_1" data-name="Layer 1" viewBox="0 0 100 100" width="125.235" height="125.235"><path d="M50,100h0A50,50,0,0,1,0,50V0H100V50A50,50,0,0,1,50,100Z" fill="#48B9FF"/></svg></g><g transform="translate(0.00,&#10;                                375.70) rotate(0, 62.6175, 62.6175)"><svg xmlns="http://www.w3.org/2000/svg" id="Layer_1" data-name="Layer 1" viewBox="0 0 100 100" width="125.235" height="125.235"><path d="M100,100A50,50,0,0,0,0,100Z" fill="#D6EEFF"/></svg></g><g transform="translate(125.23,&#10;                                375.70) rotate(0, 62.6175, 62.6175)"><svg xmlns="http://www.w3.org/2000/svg" id="Layer_1" data-name="Layer 1" viewBox="0 0 100 100" width="125.235" height="125.235"><path d="M50,100a50,50,0,1,1,50-50v50Z" fill="#0E295D"/></svg></g><g transform="translate(250.47,&#10;                                250.47) rotate(0, 62.6175, 62.6175)"><svg xmlns="http://www.w3.org/2000/svg" id="Layer_1" data-name="Layer 1" viewBox="0 0 100 100" width="125.235" height="125.235"><circle cx="50" cy="50" r="50" fill="#005DF4"/></svg></g><g transform="translate(375.70,&#10;                                250.47) rotate(0, 62.6175, 62.6175)"><svg xmlns="http://www.w3.org/2000/svg" id="Layer_1" data-name="Layer 1" viewBox="0 0 100 100" width="125.235" height="125.235"><path d="M50,100h0A50,50,0,0,1,0,50V0H100V50A50,50,0,0,1,50,100Z" fill="#48B9FF"/></svg></g><g transform="translate(250.47,&#10;                                375.70) rotate(0, 62.6175, 62.6175)"><svg xmlns="http://www.w3.org/2000/svg" id="Layer_1" data-name="Layer 1" viewBox="0 0 100 100" width="125.235" height="125.235"><path d="M100,100A50,50,0,0,0,0,100Z" fill="#D6EEFF"/></svg></g><g transform="translate(375.70,&#10;                                375.70) rotate(0, 62.6175, 62.6175)"><svg xmlns="http://www.w3.org/2000/svg" id="Layer_1" data-name="Layer 1" viewBox="0 0 100 100" width="125.235" height="125.235"><path d="M50,100a50,50,0,1,1,50-50v50Z" fill="#0E295D"/></svg></g></g><g><g transform="translate(0.00,&#10;                                500.94) rotate(0, 62.6175, 62.6175)"><svg xmlns="http://www.w3.org/2000/svg" id="Layer_1" data-name="Layer 1" viewBox="0 0 100 100" width="125.235" height="125.235"><circle cx="50" cy="50" r="50" fill="#005DF4"/></svg></g><g transform="translate(125.23,&#10;                                500.94) rotate(0, 62.6175, 62.6175)"><svg xmlns="http://www.w3.org/2000/svg" id="Layer_1" data-name="Layer 1" viewBox="0 0 100 100" width="125.235" height="125.235"><path d="M50,100h0A50,50,0,0,1,0,50V0H100V50A50,50,0,0,1,50,100Z" fill="#48B9FF"/></svg></g><g transform="translate(0.00,&#10;                                626.17) rotate(0, 62.6175, 62.6175)"><svg xmlns="http://www.w3.org/2000/svg" id="Layer_1" data-name="Layer 1" viewBox="0 0 100 100" width="125.235" height="125.235"><path d="M100,100A50,50,0,0,0,0,100Z" fill="#D6EEFF"/></svg></g><g transform="translate(125.23,&#10;                                626.17) rotate(0, 62.6175, 62.6175)"><svg xmlns="http://www.w3.org/2000/svg" id="Layer_1" data-name="Layer 1" viewBox="0 0 100 100" width="125.235" height="125.235"><path d="M50,100a50,50,0,1,1,50-50v50Z" fill="#0E295D"/></svg></g><g transform="translate(250.47,&#10;                                500.94) rotate(0, 62.6175, 62.6175)"><svg xmlns="http://www.w3.org/2000/svg" id="Layer_1" data-name="Layer 1" viewBox="0 0 100 100" width="125.235" height="125.235"><circle cx="50" cy="50" r="50" fill="#005DF4"/></svg></g><g transform="translate(375.70,&#10;                                500.94) rotate(0, 62.6175, 62.6175)"><svg xmlns="http://www.w3.org/2000/svg" id="Layer_1" data-name="Layer 1" viewBox="0 0 100 100" width="125.235" height="125.235"><path d="M50,100h0A50,50,0,0,1,0,50V0H100V50A50,50,0,0,1,50,100Z" fill="#48B9FF"/></svg></g><g transform="translate(250.47,&#10;                                626.17) rotate(0, 62.6175, 62.6175)"><svg xmlns="http://www.w3.org/2000/svg" id="Layer_1" data-name="Layer 1" viewBox="0 0 100 100" width="125.235" height="125.235"><path d="M100,100A50,50,0,0,0,0,100Z" fill="#D6EEFF"/></svg></g><g transform="translate(375.70,&#10;                                626.17) rotate(0, 62.6175, 62.6175)"><svg xmlns="http://www.w3.org/2000/svg" id="Layer_1" data-name="Layer 1" viewBox="0 0 100 100" width="125.235" height="125.235"><path d="M50,100a50,50,0,1,1,50-50v50Z" fill="#0E295D"/></svg></g></g></svg>