<svg width="12" height="13" viewBox="0 0 12 13" fill="none" xmlns="http://www.w3.org/2000/svg">
<path d="M6.33668 3.11524C6.55431 2.84375 6.51063 2.44729 6.23908 2.2297C5.96761 2.01213 5.57116 2.05581 5.35361 2.3273L6.33668 3.11524ZM0.891177 8.90242L1.36829 9.31374C1.37321 9.30802 1.37802 9.30223 1.38274 9.29635L0.891177 8.90242ZM0.747547 9.25351L0.118818 9.21244L0.118264 9.22437L0.747547 9.25351ZM0.629956 11.7927L0.00067255 11.7635C-0.000772147 11.7948 0.00010979 11.8261 0.00332676 11.8572L0.629956 11.7927ZM1.29099 12.3697L1.31158 12.9993C1.3536 12.9979 1.39536 12.9923 1.43626 12.9826L1.29099 12.3697ZM3.81081 11.7725L3.95612 12.3855L3.96586 12.383L3.81081 11.7725ZM4.13419 11.5675L4.62018 11.9684L4.62564 11.9616L4.13419 11.5675ZM9.69887 5.63522C9.9165 5.36375 9.87291 4.9673 9.60153 4.74963C9.33014 4.53197 8.9336 4.57557 8.71598 4.84702L9.69887 5.63522ZM5.35622 2.32713C5.13859 2.59854 5.1821 2.99502 5.45356 3.21269C5.72495 3.43037 6.1214 3.38681 6.33911 3.11541L5.35622 2.32713ZM7.18149 1.05818L7.67294 1.45232C7.68117 1.442 7.68915 1.43142 7.69679 1.42059L7.18149 1.05818ZM8.54975 0.7894L8.95275 0.305225C8.93268 0.288527 8.9116 0.273097 8.88968 0.259012L8.54975 0.7894ZM10.4287 2.35337L10.8745 1.90834C10.8608 1.89464 10.8466 1.88158 10.8317 1.86919L10.4287 2.35337ZM10.4211 3.72919L9.98017 3.27929C9.96236 3.29679 9.94556 3.31534 9.92986 3.33483L10.4211 3.72919ZM8.71598 4.84702C8.49818 5.11832 8.54177 5.51452 8.81307 5.73231C9.08437 5.95011 9.48108 5.90652 9.69887 5.63522L8.71598 4.84702ZM6.47065 2.62791C6.41908 2.28384 6.09839 2.04671 5.75435 2.09827C5.41022 2.14983 5.17311 2.47055 5.22468 2.81462L6.47065 2.62791ZM9.29226 5.86528C9.63697 5.81849 9.87845 5.50099 9.83167 5.15628C9.7848 4.81152 9.46739 4.57002 9.12259 4.61687L9.29226 5.86528ZM5.35361 2.3273L0.399619 8.5084L1.38274 9.29635L6.33668 3.11524L5.35361 2.3273ZM0.414066 8.49101C0.239896 8.69302 0.13618 8.94626 0.118818 9.21244L1.37617 9.2945C1.37571 9.30156 1.37294 9.30836 1.36829 9.31374L0.414066 8.49101ZM0.118264 9.22437L0.00067255 11.7635L1.25924 11.8218L1.37683 9.28266L0.118264 9.22437ZM0.00332676 11.8572C0.0719247 12.5224 0.643294 13.0211 1.31158 12.9993L1.27039 11.7401C1.26771 11.7402 1.26639 11.7397 1.26553 11.7394C1.26433 11.739 1.26274 11.7381 1.26112 11.7367C1.25949 11.7353 1.25844 11.7339 1.25784 11.7328C1.25742 11.7319 1.25686 11.7307 1.25658 11.728L0.00332676 11.8572ZM1.43626 12.9826L3.95612 12.3855L3.6655 11.1595L1.14571 11.7567L1.43626 12.9826ZM3.96586 12.383C4.22246 12.3179 4.45168 12.1727 4.62018 11.9684L3.6482 11.1666C3.65021 11.1643 3.65282 11.1626 3.65576 11.1619L3.96586 12.383ZM4.62564 11.9616L9.69887 5.63522L8.71598 4.84702L3.64274 11.1734L4.62564 11.9616ZM6.33911 3.11541L7.67294 1.45232L6.69004 0.664048L5.35622 2.32713L6.33911 3.11541ZM7.69679 1.42059C7.81321 1.25502 8.0394 1.21058 8.20983 1.3198L8.88968 0.259012C8.15112 -0.214261 7.17082 -0.0216964 6.66619 0.695781L7.69679 1.42059ZM8.14675 1.27358L10.0257 2.83754L10.8317 1.86919L8.95275 0.305225L8.14675 1.27358ZM9.98286 2.79841C10.0466 2.86232 10.0822 2.94909 10.0817 3.0394L11.3416 3.04632C11.344 2.61987 11.1758 2.21017 10.8745 1.90834L9.98286 2.79841ZM10.0817 3.0394C10.0813 3.12971 10.0447 3.21607 9.98017 3.27929L10.8621 4.17911C11.1667 3.8806 11.3393 3.47277 11.3416 3.04632L10.0817 3.0394ZM9.92986 3.33483L8.71598 4.84702L9.69887 5.63522L10.9124 4.12356L9.92986 3.33483ZM5.22468 2.81462C5.51807 4.77278 7.33024 6.13187 9.29226 5.86528L9.12259 4.61687C7.84345 4.79067 6.66199 3.90456 6.47065 2.62791L5.22468 2.81462Z" fill="#393E46"/>
</svg>
