<svg width="18" height="18" viewBox="0 0 18 18" fill="none" xmlns="http://www.w3.org/2000/svg">
<path d="M2.91058 9.52993L5.65424 6.24317C5.93234 5.88562 6.07139 5.70684 6.14426 5.50633C6.20874 5.32891 6.23542 5.13997 6.22258 4.95164C6.20807 4.73879 6.12396 4.52851 5.95573 4.10794L5.31401 2.50368C5.06506 1.88128 4.94057 1.57008 4.72583 1.3661C4.5366 1.18636 4.29948 1.06511 4.04298 1.01695C3.75188 0.962299 3.42671 1.04359 2.77637 1.20617L1 1.65032C1 10.6795 7.32027 17 16.3499 17L16.7938 15.2234C16.9564 14.5731 17.0377 14.2479 16.9831 13.9569C16.9348 13.7004 16.8137 13.4632 16.6339 13.274C16.4299 13.0593 16.1187 12.9348 15.4963 12.6858L14.0647 12.1132C13.5849 11.9212 13.3449 11.8253 13.1058 11.8179C12.8943 11.8114 12.6844 11.8545 12.4926 11.9438C12.2756 12.0448 12.0929 12.2275 11.7275 12.5929L8.94069 15.3358" stroke="#393E46" stroke-linecap="round" stroke-linejoin="round"/>
</svg>
