<svg width="1000" height="1000" viewBox="0 0 1000 1000" fill="none" xmlns="http://www.w3.org/2000/svg">
<rect width="1000" height="1000" fill="#EEEEEE"/>
<path d="M592.244 725H714.031C724.725 725 733.204 721.517 739.466 714.552C745.728 707.587 748.859 698.265 748.859 686.585V417.261C748.859 405.582 745.728 396.26 739.466 389.294C733.204 382.329 724.725 378.846 714.031 378.846H602.586V686.585C602.586 693.762 601.707 700.551 599.948 706.954C598.189 713.356 595.621 719.372 592.244 725ZM650.5 485.647V451.876C650.5 446.951 652.963 444.489 657.888 444.489H692.923C697.848 444.489 700.311 446.951 700.311 451.876V485.647C700.311 490.713 697.848 493.246 692.923 493.246H657.888C652.963 493.246 650.5 490.713 650.5 485.647ZM650.5 568.809V535.038C650.5 530.113 652.963 527.65 657.888 527.65H692.923C697.848 527.65 700.311 530.113 700.311 535.038V568.809C700.311 573.734 697.848 576.196 692.923 576.196H657.888C652.963 576.196 650.5 573.734 650.5 568.809ZM650.5 651.97V618.199C650.5 613.133 652.963 610.6 657.888 610.6H692.923C697.848 610.6 700.311 613.133 700.311 618.199V651.97C700.311 656.895 697.848 659.357 692.923 659.357H657.888C652.963 659.357 650.5 656.895 650.5 651.97ZM252 686.585C252 698.265 255.131 707.587 261.392 714.552C267.654 721.517 276.203 725 287.037 725H538.632C549.467 725 558.015 721.517 564.277 714.552C570.539 707.587 573.669 698.265 573.669 686.585V313.415C573.669 301.595 570.539 292.237 564.277 285.342C558.015 278.447 549.467 275 538.632 275H287.037C276.203 275 267.654 278.447 261.392 285.342C255.131 292.237 252 301.595 252 313.415V686.585ZM339.805 691.018V622.42C339.805 617.495 341.282 613.591 344.237 610.706C347.192 607.821 351.062 606.379 355.846 606.379H471.723C476.648 606.379 480.553 607.821 483.437 610.706C486.322 613.591 487.764 617.495 487.764 622.42V691.018H339.805ZM332.839 388.344V347.397C332.839 341.346 335.724 338.321 341.493 338.321H383.707C389.758 338.321 392.783 341.346 392.783 347.397V388.344C392.783 394.395 389.758 397.421 383.707 397.421H341.493C335.724 397.421 332.839 394.395 332.839 388.344ZM434.786 388.344V347.397C434.786 341.346 437.741 338.321 443.651 338.321H485.654C491.704 338.321 494.73 341.346 494.73 347.397V388.344C494.73 394.395 491.704 397.421 485.654 397.421H443.651C437.741 397.421 434.786 394.395 434.786 388.344ZM332.839 474.461V433.513C332.839 427.463 335.724 424.437 341.493 424.437H383.707C389.758 424.437 392.783 427.463 392.783 433.513V474.461C392.783 480.511 389.758 483.537 383.707 483.537H341.493C335.724 483.537 332.839 480.511 332.839 474.461ZM434.786 474.461V433.513C434.786 427.463 437.741 424.437 443.651 424.437H485.654C491.704 424.437 494.73 427.463 494.73 433.513V474.461C494.73 480.511 491.704 483.537 485.654 483.537H443.651C437.741 483.537 434.786 480.511 434.786 474.461ZM332.839 560.577V519.629C332.839 513.579 335.724 510.553 341.493 510.553H383.707C389.758 510.553 392.783 513.579 392.783 519.629V560.577C392.783 566.628 389.758 569.653 383.707 569.653H341.493C335.724 569.653 332.839 566.628 332.839 560.577ZM434.786 560.577V519.629C434.786 513.579 437.741 510.553 443.651 510.553H485.654C491.704 510.553 494.73 513.579 494.73 519.629V560.577C494.73 566.628 491.704 569.653 485.654 569.653H443.651C437.741 569.653 434.786 566.628 434.786 560.577Z" fill="#393E46"/>
</svg>
