<svg width="40" height="40" viewBox="0 0 40 40" fill="none" xmlns="http://www.w3.org/2000/svg">
<rect width="40" height="40" rx="5" fill="#EEEEEE"/>
<path d="M28.1228 14.2105H25.4912V12.2807C25.4898 11.0218 24.4695 10.0014 23.2105 10H16.193C14.934 10.0014 13.9137 11.0218 13.9123 12.2807V14.2105H11.2807C10.0218 14.2119 9.0014 15.2323 9 16.4912V27.7193C9.0014 28.9782 10.0218 29.9986 11.2807 30H28.1228C29.3818 29.9993 30.4028 28.9782 30.4035 27.7193V16.4912C30.4021 15.2323 29.3818 14.2119 28.1228 14.2105ZM15.6667 12.2807C15.6709 11.9916 15.9039 11.7586 16.1923 11.7544H23.2105C23.4996 11.7586 23.7326 11.9916 23.7368 12.28V14.2105H15.6667V12.2807ZM28.6491 27.7193C28.6449 28.0084 28.4119 28.2414 28.1235 28.2456H11.2807C10.9916 28.2414 10.7586 28.0084 10.7544 27.72V16.4912C10.7586 16.2021 10.9916 15.9691 11.28 15.9649H28.1228C28.4119 15.9691 28.6449 16.2021 28.6491 16.4905V16.4912V27.7193Z" fill="#393E46" fill-opacity="0.5"/>
</svg>
