<svg width="32" height="29" viewBox="0 0 32 29" fill="none" xmlns="http://www.w3.org/2000/svg">
<path d="M23.7778 22.0735H23.7933M21.6 17.4412H25.3333C26.783 17.4412 27.5077 17.4412 28.0795 17.6762C28.8417 17.9896 29.4475 18.5909 29.7632 19.3475C30 19.9152 30 20.6346 30 22.0735C30 23.5125 30 24.2319 29.7632 24.7995C29.4475 25.5561 28.8417 26.1574 28.0795 26.4709C27.5077 26.7059 26.783 26.7059 25.3333 26.7059H6.66667C5.21708 26.7059 4.49228 26.7059 3.92054 26.4709C3.15824 26.1574 2.55258 25.5561 2.23682 24.7995C2 24.2319 2 23.5125 2 22.0735C2 20.6346 2 19.9152 2.23682 19.3475C2.55258 18.5909 3.15824 17.9896 3.92054 17.6762C4.49228 17.4412 5.21708 17.4412 6.66667 17.4412H10.4M16 18.9853V2M16 2L20.6667 6.63235M16 2L11.3333 6.63235" stroke="#393E46" stroke-opacity="0.5" stroke-width="3" stroke-linecap="round" stroke-linejoin="round"/>
</svg>
