<svg width="28" height="20" viewBox="0 0 28 20" fill="none" xmlns="http://www.w3.org/2000/svg">
<path fill-rule="evenodd" clip-rule="evenodd" d="M11.1838 13.6944V5.67757C13.9729 7.01675 16.133 8.31043 18.6878 9.70519C16.5807 10.8976 13.9729 12.2356 11.1838 13.6944ZM26.7274 1.6904C26.2463 1.04361 25.4263 0.540127 24.5533 0.373441C21.9874 -0.123773 5.97938 -0.125187 3.41481 0.373441C2.71475 0.507355 2.09137 0.831046 1.55587 1.33396C-0.700508 3.47096 0.00653265 14.931 0.550406 16.7874C0.77911 17.5909 1.07477 18.1704 1.44711 18.5507C1.92683 19.0536 2.58365 19.3999 3.3381 19.5552C5.45084 20.0011 16.3353 20.2505 24.5087 19.6222C25.2617 19.4883 25.9283 19.1308 26.4541 18.6066C28.5403 16.4781 28.3981 4.37448 26.7274 1.6904Z" fill="#393E46"/>
</svg>
